<svg xmlns="http://www.w3.org/2000/svg" width="32" height="32" fill="none"><g clip-path="url(#a)"><path fill="#fff" d="M0 0h32v32H0z"/><path fill="#fff" d="M0 0h32v32H0z"/><path fill="#F04A45" fill-rule="evenodd" d="M0 16C0 7.178 7.178 0 16 0c8.823 0 16 7.178 16 16v2.269a4.791 4.791 0 0 1-4.786 4.786 4.79 4.79 0 0 1-4.782-4.714h-.007v-2.234c0-.848-.207-1.466-.623-1.854-.414-.387-1.073-.581-1.976-.581s-1.562.194-1.977.581c-.415.388-.622 1.006-.622 1.854v4.103h-2.462v-8.48h2.462v.916h.37c.227-.383.604-.677 1.128-.882.524-.205 1.151-.308 1.88-.308 1.35 0 2.401.36 3.154 1.08.752.721 1.128 1.729 1.128 3.024v2.709h.001a2.329 2.329 0 0 0 2.326 2.326 2.329 2.329 0 0 0 2.326-2.326V16c0-7.466-6.074-13.54-13.54-13.54C8.534 2.46 2.46 8.534 2.46 16c0 7.466 6.074 13.54 13.54 13.54a13.42 13.42 0 0 0 8.982-3.412h1.4l1.071 1.045A15.878 15.878 0 0 1 16 32C7.178 32 0 24.823 0 16zm10.568-4.547H8.094v3.156h-3.16v2.474h3.16v3.155h2.474v-3.155h3.15V14.61h-3.15v-3.156z" clip-rule="evenodd"/></g><defs><clipPath id="a"><path fill="#fff" d="M0 0h32v32H0z"/></clipPath></defs></svg>